<svg xmlns="http://www.w3.org/2000/svg" width="260.511" height="40.676" viewBox="0 0 260.511 40.676">
  <g id="Group_1" data-name="Group 1" transform="translate(-130.008 -229.919)">
    <g id="Group_41" data-name="Group 41" transform="translate(162.893 259.533)">
      <path id="Path_36" data-name="Path 36" d="M198.438,287.969h2.527l4.652,9.488h-2.162l-.952-2h-5.55l-.952,2H193.84Zm-.55,5.586h3.663l-1.832-3.736Z" transform="translate(-193.84 -287.676)" fill="#6c6c70"/>
      <path id="Path_37" data-name="Path 37" d="M233.209,290.863a5.912,5.912,0,0,0-3.773-1.557,3.443,3.443,0,0,0-3.718,3.187c0,1.411,1.209,3.077,3.938,3.077a6.894,6.894,0,0,0,3.974-1.336l.861,1.757a8.9,8.9,0,0,1-4.854,1.484c-3.187,0-5.824-1.74-5.824-5.037,0-3.352,3.077-5.036,5.714-5.036a7.479,7.479,0,0,1,4.8,1.795Z" transform="translate(-208.371 -287.401)" fill="#6c6c70"/>
      <path id="Path_38" data-name="Path 38" d="M262.514,297.712l-1.738.751-1.142-1.282a8.339,8.339,0,0,1-.931.2,6.116,6.116,0,0,1-.984.092c-3.337,0-5.584-2.381-5.584-5.037s2-5.036,5.584-5.036c3.6,0,5.585,2.363,5.585,5.036a4.588,4.588,0,0,1-1.984,3.92Zm-2.476-2.82a2.972,2.972,0,0,0,1.439-2.455c0-1.648-1.492-3.132-3.758-3.132s-3.758,1.5-3.758,3.132a3.358,3.358,0,0,0,3.53,3.132,2.656,2.656,0,0,0,.667-.073l-.141-.165,1.739-.769Z" transform="translate(-222.103 -287.401)" fill="#6c6c70"/>
      <path id="Path_39" data-name="Path 39" d="M283.872,287.969v5.77c0,1.135.293,2.106,2.674,2.106,2.527,0,2.674-1.08,2.674-2.106v-5.77h1.9v5.77c0,2-.952,4.011-4.6,4.011-3.3,0-4.56-1.758-4.56-4.011v-5.77Z" transform="translate(-236.565 -287.676)" fill="#6c6c70"/>
      <path id="Path_40" data-name="Path 40" d="M311.649,287.969v9.488h-1.9v-9.488Z" transform="translate(-250.032 -287.676)" fill="#6c6c70"/>
      <path id="Path_41" data-name="Path 41" d="M323.128,294.123a8.645,8.645,0,0,0,4.89,1.447c.953,0,2.564-.238,2.564-1.3,0-.769-.842-.971-1.428-.99l-2.839-.091c-2.327-.055-3.462-1.411-3.462-2.875,0-1.41,1.044-2.912,4.45-2.912a8.954,8.954,0,0,1,4.579,1.245l-.861,1.685a8.588,8.588,0,0,0-4.011-1.025c-1.007,0-2.253.219-2.253,1.062,0,.734,1.044.917,1.685.917l2.472.092c2.18.054,3.572.989,3.572,2.986,0,1.7-1.337,3.113-4.469,3.113a9.291,9.291,0,0,1-5.77-1.649Z" transform="translate(-256.094 -287.401)" fill="#6c6c70"/>
      <path id="Path_42" data-name="Path 42" d="M353.943,287.969v9.488h-1.9v-9.488Z" transform="translate(-270.537 -287.676)" fill="#6c6c70"/>
      <path id="Path_43" data-name="Path 43" d="M373.412,287.969v1.905h-3.5v7.583h-1.9v-7.583h-3.5v-1.905Z" transform="translate(-276.584 -287.676)" fill="#6c6c70"/>
      <path id="Path_44" data-name="Path 44" d="M392.537,287.969v9.488h-1.9v-9.488Z" transform="translate(-289.247 -287.676)" fill="#6c6c70"/>
      <path id="Path_45" data-name="Path 45" d="M402.274,292.437c0-2.655,2.034-5.036,5.672-5.036,3.656,0,5.672,2.363,5.672,5.036,0,2.656-2.051,5.037-5.672,5.037S402.274,295.094,402.274,292.437Zm9.489,0c0-1.648-1.517-3.132-3.816-3.132s-3.816,1.5-3.816,3.132c0,1.648,1.516,3.132,3.816,3.132S411.763,294.086,411.763,292.437Z" transform="translate(-294.892 -287.401)" fill="#6c6c70"/>
      <path id="Path_46" data-name="Path 46" d="M432.883,287.969h1.9l5.2,6.411h.037v-6.411h1.9v9.488h-1.9l-5.2-6.411h-.036v6.411h-1.9Z" transform="translate(-309.731 -287.676)" fill="#6c6c70"/>
      <path id="Path_47" data-name="Path 47" d="M484.246,290.863a5.908,5.908,0,0,0-3.773-1.557,3.443,3.443,0,0,0-3.718,3.187c0,1.411,1.209,3.077,3.938,3.077a6.9,6.9,0,0,0,3.975-1.336l.86,1.757a8.9,8.9,0,0,1-4.853,1.484c-3.186,0-5.825-1.74-5.825-5.037,0-3.352,3.078-5.036,5.714-5.036a7.476,7.476,0,0,1,4.8,1.795Z" transform="translate(-330.077 -287.401)" fill="#6c6c70"/>
      <path id="Path_48" data-name="Path 48" d="M503.088,292.437c0-2.655,2.033-5.036,5.671-5.036,3.656,0,5.671,2.363,5.671,5.036,0,2.656-2.05,5.037-5.671,5.037S503.088,295.094,503.088,292.437Zm9.488,0c0-1.648-1.517-3.132-3.817-3.132s-3.817,1.5-3.817,3.132c0,1.648,1.517,3.132,3.817,3.132S512.576,294.086,512.576,292.437Z" transform="translate(-343.768 -287.401)" fill="#6c6c70"/>
      <path id="Path_49" data-name="Path 49" d="M539.735,287.969c1.758,0,3.424.66,3.424,2.8a2.822,2.822,0,0,1-2.125,2.8l2.4,3.883h-2.4l-2.4-3.865H535.6v3.865H533.69v-9.488Zm-4.139,1.905v1.813h4.139c.568,0,1.52-.073,1.52-.915,0-.879-.861-.9-1.52-.9Z" transform="translate(-358.604 -287.676)" fill="#6c6c70"/>
      <path id="Path_50" data-name="Path 50" d="M568.361,287.969c1.849,0,3.425.806,3.425,3,0,2.124-1.466,3.059-3.425,3.059h-3.791v3.425h-1.9v-9.488Zm-3.791,4.158h3.791c.733,0,1.52-.092,1.52-1.154,0-1.008-.842-1.1-1.52-1.1h-3.791Z" transform="translate(-372.652 -287.676)" fill="#6c6c70"/>
      <path id="Path_51" data-name="Path 51" d="M587.644,302.287a1.122,1.122,0,1,1-1.123,1.122A1.095,1.095,0,0,1,587.644,302.287Z" transform="translate(-384.217 -294.618)" fill="#6c6c70"/>
    </g>
    <g id="Group_44" data-name="Group 44" transform="translate(130.008 229.919)">
      <path id="Path_52" data-name="Path 52" d="M288.2,251.125h-3.51l-3.081-6.708h-9.641l-3.194,6.708h-3.4l9.758-20.363h3.453ZM276.8,234.4l-3.4,7.085H280.2Z" transform="translate(-195.635 -230.328)" fill="#6c6c70"/>
      <path id="Path_53" data-name="Path 53" d="M330.226,230.762c3.453,0,6.762,1.654,6.762,5.811,0,4.424-3.135,5.808-4.947,5.944l4.46,8.608h-3.54l-4.316-8.5h-8.028v8.5h-3.11V230.762Zm-9.61,2.932v6h9.61c2.332,0,3.655-1.138,3.655-3.12,0-2.308-1.871-2.879-3.655-2.879Z" transform="translate(-220.91 -230.328)" fill="#6c6c70"/>
      <path id="Path_54" data-name="Path 54" d="M366.207,245.042c1.438.922,3.537,3.175,8.72,3.175,2.9,0,6.873-.977,6.873-3.474,0-3.339-4.058-3.339-6.759-3.339h-3.221c-2.938,0-6.391-1.521-6.391-5.214,0-4.316,5.182-6.271,9.153-6.271a15.191,15.191,0,0,1,8.834,2.769l-1.757,2.364c-1.844-1.033-3.369-2.2-6.991-2.2-2.706,0-6.13.951-6.13,3.34,0,1.574,1.206,2.336,3.682,2.336h2.852c5.059,0,9.835,1.194,9.835,6.244,0,4.264-4.8,6.38-10.184,6.38-6.5,0-9.382-2.9-10.7-4.127Z" transform="translate(-243.46 -229.919)" fill="#6c6c70"/>
      <path id="Path_55" data-name="Path 55" d="M428.188,230.762v2.932H420.62v17.431h-3.107V233.694h-7.568v-2.932Z" transform="translate(-265.725 -230.328)" fill="#6c6c70"/>
      <path id="Path_56" data-name="Path 56" d="M467.318,230.762c3.456,0,6.764,1.654,6.764,5.811,0,4.424-3.14,5.808-4.954,5.944l4.464,8.608h-3.54l-4.316-8.5h-8.028v8.5H454.6V230.762Zm-9.61,2.932v6h9.61c2.331,0,3.655-1.138,3.655-3.12,0-2.308-1.871-2.879-3.655-2.879Z" transform="translate(-287.374 -230.328)" fill="#6c6c70"/>
      <path id="Path_57" data-name="Path 57" d="M565.307,251.125H561.8l-3.08-6.708h-9.641l-3.194,6.708h-3.4l9.761-20.363H555.7ZM553.91,234.4l-3.4,7.085h6.792Z" transform="translate(-329.981 -230.328)" fill="#6c6c70"/>
      <path id="Path_58" data-name="Path 58" d="M598.173,236.871h-.06v14.254h-3.107V230.762h3.107l7.37,12.651,7.366-12.651h3.107v20.363h-3.107V236.871h-.06l-7.306,12.515Z" transform="translate(-355.445 -230.328)" fill="#6c6c70"/>
      <path id="Path_59" data-name="Path 59" d="M152.167,247.078c-2.042,2.089-4.6,4.071-10.792,4.071-5.841,0-11.367-4.208-11.367-10.452,0-6,4.921-10.778,11.309-10.778a15.273,15.273,0,0,1,10.5,4.152l-2.331,1.874a12.629,12.629,0,0,0-8.144-3.1c-4.029,0-8.231,2.772-8.231,7.847,0,3.637,3.107,7.52,9.009,7.52a10.252,10.252,0,0,0,7.971-3.258Z" transform="translate(-130.008 -229.919)" fill="#6c6c70"/>
      <path id="Path_60" data-name="Path 60" d="M183.263,230.762h3.107v17.43h13.093v2.933h-16.2Z" transform="translate(-155.827 -230.328)" fill="#6c6c70"/>
      <g id="Group_42" data-name="Group 42" transform="translate(191.441 0.473)">
        <rect id="Rectangle_77" data-name="Rectangle 77" width="17.554" height="2.855" fill="#3f8bb1"/>
        <rect id="Rectangle_78" data-name="Rectangle 78" width="17.554" height="2.852" transform="translate(0 8.825)" fill="#3f8bb1"/>
        <rect id="Rectangle_79" data-name="Rectangle 79" width="17.554" height="2.855" transform="translate(0.087 17.383)" fill="#3f8bb1"/>
      </g>
      <g id="Group_43" data-name="Group 43" transform="translate(48.319 0.473)">
        <rect id="Rectangle_80" data-name="Rectangle 80" width="17.555" height="2.855" fill="#3f8bb1"/>
        <rect id="Rectangle_81" data-name="Rectangle 81" width="17.555" height="2.852" transform="translate(0 8.825)" fill="#3f8bb1"/>
        <rect id="Rectangle_82" data-name="Rectangle 82" width="17.555" height="2.855" transform="translate(0.087 17.383)" fill="#3f8bb1"/>
      </g>
    </g>
  </g>
</svg>
